<?xml version="1.0" encoding="UTF-8" standalone="no"?>
<!-- Created with Inkscape (http://www.inkscape.org/) -->

<svg
   xmlns:dc="http://purl.org/dc/elements/1.1/"
   xmlns:cc="http://creativecommons.org/ns#"
   xmlns:rdf="http://www.w3.org/1999/02/22-rdf-syntax-ns#"
   xmlns:svg="http://www.w3.org/2000/svg"
   xmlns="http://www.w3.org/2000/svg"
   xmlns:sodipodi="http://sodipodi.sourceforge.net/DTD/sodipodi-0.dtd"
   xmlns:inkscape="http://www.inkscape.org/namespaces/inkscape"
   width="320"
   height="96"
   id="svg2985"
   version="1.1"
   inkscape:version="0.91 r13725"
   sodipodi:docname="icons.svg">
  <defs
     id="defs2987" />
  <sodipodi:namedview
     id="base"
     pagecolor="#ffffff"
     bordercolor="#666666"
     borderopacity="1.0"
     inkscape:pageopacity="0.0"
     inkscape:pageshadow="2"
     inkscape:zoom="11.197802"
     inkscape:cx="13.794009"
     inkscape:cy="49.042643"
     inkscape:current-layer="layer1"
     showgrid="true"
     inkscape:grid-bbox="true"
     inkscape:document-units="px"
     inkscape:window-width="1280"
     inkscape:window-height="698"
     inkscape:window-x="0"
     inkscape:window-y="1"
     inkscape:window-maximized="1">
    <inkscape:grid
       type="xygrid"
       id="grid2993"
       empspacing="4"
       visible="true"
       enabled="true"
       snapvisiblegridlinesonly="true" />
    <inkscape:grid
       type="xygrid"
       id="grid3805"
       empspacing="1"
       visible="true"
       enabled="true"
       snapvisiblegridlinesonly="true"
       spacingx="32px"
       spacingy="32px"
       empcolor="#000000"
       empopacity="0.6" />
  </sodipodi:namedview>
  <metadata
     id="metadata2990">
    <rdf:RDF>
      <cc:Work
         rdf:about="">
        <dc:format>image/svg+xml</dc:format>
        <dc:type
           rdf:resource="http://purl.org/dc/dcmitype/StillImage" />
        <dc:title />
      </cc:Work>
    </rdf:RDF>
  </metadata>
  <g
     id="layer1"
     inkscape:label="Layer 1"
     inkscape:groupmode="layer"
     transform="translate(0,64)">
    <path
       style="fill:#000000;fill-opacity:1;stroke:none"
       d="m 10,-41 0,-14 2,0 0,14 z"
       id="path2995"
       inkscape:connector-curvature="0"
       sodipodi:nodetypes="ccccc" />
    <path
       style="fill:#000000;fill-opacity:1;stroke:none"
       d="m 12,-54 c 0,0 3,-1 5,1 2,2 5,1 5,1 l 0,8 c 0,0 -3,1 -5,-1 -2,-2 -5,-1 -5,-1 z"
       id="path3765"
       inkscape:connector-curvature="0"
       sodipodi:nodetypes="czcczcc" />
    <path
       style="fill:#000000;fill-opacity:1;stroke:none"
       d="m 42,-55 4,0 0,14 -4,0 z"
       id="path3807"
       inkscape:connector-curvature="0"
       sodipodi:nodetypes="ccccc" />
    <path
       style="fill:#000000;fill-opacity:1;stroke:none"
       d="m 49,-55 4,0 0,14 -4,0 z"
       id="path3817"
       inkscape:connector-curvature="0"
       sodipodi:nodetypes="ccccc" />
    <path
       style="fill:#000000;fill-opacity:1;stroke:none"
       d="m 109,-41 6,0 4,-4 0,-6 -4,-4 -6,0 -4,4 0,6 z"
       id="path3821"
       inkscape:connector-curvature="0"
       sodipodi:nodetypes="ccccccccc" />
    <path
       style="fill:#000000;fill-opacity:1;stroke:none"
       d="m 74,-55 12,7 -12,7 z"
       id="path3823"
       inkscape:connector-curvature="0"
       sodipodi:nodetypes="cccc" />
    <path
       style="fill:#000000;fill-opacity:1;stroke:none"
       d="m 169,-55 7,0 0,2 -5,0 0,10 10,0 0,-5 2,0 0,7 -14,0 z"
       id="path3910"
       inkscape:connector-curvature="0" />
    <path
       style="fill:#000000;fill-opacity:1;stroke:none"
       d="m 175,-48.5 4.5,-4.5 -2,-2 5.5,0 0,5.5 -2,-2 -4.5,4.5 -1.5,0 z"
       id="path3912"
       inkscape:connector-curvature="0"
       sodipodi:nodetypes="ccccccccc" />
    <path
       style="fill:#000000;fill-opacity:1;stroke:none"
       d="m 151,-55 0,5.5 -2,-2 -2.5,2.5 -0.65587,-0.655869 L 145,-50.5 l 2.5,-2.5 -2,-2 z"
       id="path3936"
       inkscape:connector-curvature="0"
       sodipodi:nodetypes="ccccccccc" />
    <path
       sodipodi:nodetypes="cccccccc"
       inkscape:connector-curvature="0"
       id="path3938"
       d="m 137,-55 5.5,0 -2,2 2.5,2.5 -1.5,1.5 -2.5,-2.5 -2,2 z"
       style="fill:#000000;fill-opacity:1;stroke:none" />
    <path
       style="fill:#000000;fill-opacity:1;stroke:none"
       d="m 137,-41 0,-5.5 2,2 2.5,-2.5 1.5,1.5 -2.5,2.5 2,2 z"
       id="path3940"
       inkscape:connector-curvature="0"
       sodipodi:nodetypes="cccccccc" />
    <path
       sodipodi:nodetypes="ccccccccc"
       inkscape:connector-curvature="0"
       id="path4108"
       d="m 151,-41 -5.5,0 2,-2 -2.5,-2.5 0.65587,-0.65587 L 146.5,-47 l 2.5,2.5 2,-2 z"
       style="fill:#000000;fill-opacity:1;stroke:none" />
    <path
       style="fill:#ffffff;fill-opacity:1;stroke:none"
       d="m 10,-9 0,-14 2,0 0,14 z"
       id="path2995-7"
       inkscape:connector-curvature="0"
       sodipodi:nodetypes="ccccc" />
    <path
       style="fill:#ffffff;fill-opacity:1;stroke:none"
       d="m 12,-22 c 0,0 3,-1 5,1 2,2 5,1 5,1 l 0,8 c 0,0 -3,1 -5,-1 -2,-2 -5,-1 -5,-1 z"
       id="path3765-8"
       inkscape:connector-curvature="0"
       sodipodi:nodetypes="czcczcc" />
    <path
       style="fill:#ffffff;fill-opacity:1;stroke:none"
       d="m 42,-23 4,0 0,14 -4,0 z"
       id="path3807-1"
       inkscape:connector-curvature="0"
       sodipodi:nodetypes="ccccc" />
    <path
       style="fill:#ffffff;fill-opacity:1;stroke:none"
       d="m 49,-23 4,0 0,14 -4,0 z"
       id="path3817-3"
       inkscape:connector-curvature="0"
       sodipodi:nodetypes="ccccc" />
    <path
       style="fill:#ffffff;fill-opacity:1;stroke:none"
       d="m 109,-9 6,0 4,-4 0,-6 -4,-4 -6,0 -4,4 0,6 z"
       id="path3821-4"
       inkscape:connector-curvature="0"
       sodipodi:nodetypes="ccccccccc" />
    <path
       style="fill:#ffffff;fill-opacity:1;stroke:none"
       d="m 74,-23 12,7 -12,7 z"
       id="path3823-2"
       inkscape:connector-curvature="0"
       sodipodi:nodetypes="cccc" />
    <path
       style="fill:#ffffff;fill-opacity:1;stroke:none"
       d="m 145,-17 0,-5.5 2,2 2.5,-2.5 0.65587,0.655869 L 151,-21.5 l -2.5,2.5 2,2 z"
       id="path3936-2"
       inkscape:connector-curvature="0"
       sodipodi:nodetypes="ccccccccc" />
    <path
       sodipodi:nodetypes="cccccccc"
       inkscape:connector-curvature="0"
       id="path3938-7"
       d="m 143,-17 -5.5,0 2,-2 -2.5,-2.5 1.5,-1.5 2.5,2.5 2,-2 z"
       style="fill:#ffffff;fill-opacity:1;stroke:none" />
    <path
       style="fill:#ffffff;fill-opacity:1;stroke:none"
       d="m 143,-15 0,5.5 -2,-2 -2.5,2.5 -1.5,-1.5 2.5,-2.5 -2,-2 z"
       id="path3940-7"
       inkscape:connector-curvature="0"
       sodipodi:nodetypes="cccccccc" />
    <path
       sodipodi:nodetypes="ccccccccc"
       inkscape:connector-curvature="0"
       id="path4011"
       d="m 145,-15 5.5,0 -2,2 2.5,2.5 -0.65587,0.65587 L 149.5,-9 l -2.5,-2.5 -2,2 z"
       style="fill:#ffffff;fill-opacity:1;stroke:none" />
    <path
       sodipodi:type="arc"
       style="fill:#2eaedf;fill-opacity:1;stroke:none"
       id="path2987"
       sodipodi:cx="10"
       sodipodi:cy="10"
       sodipodi:rx="10"
       sodipodi:ry="10"
       d="M 20,10 A 10,10 0 0 1 10,20 10,10 0 0 1 0,10 10,10 0 0 1 10,0 10,10 0 0 1 20,10 Z"
       transform="translate(166,-26)" />
    <path
       style="fill:#ffffff;fill-opacity:1;stroke:none"
       d="m 170,-14.5 4,4 7,-7 0,-4 -7,7 -2,-2 z"
       id="path3757"
       inkscape:connector-curvature="0"
       sodipodi:nodetypes="ccccccc" />
    <path
       style="font-size:medium;font-style:normal;font-variant:normal;font-weight:normal;font-stretch:normal;text-indent:0;text-align:start;text-decoration:none;line-height:normal;letter-spacing:normal;word-spacing:normal;text-transform:none;direction:ltr;block-progression:tb;writing-mode:lr-tb;text-anchor:start;baseline-shift:baseline;color:#000000;fill:#a0a0a0;fill-opacity:1;stroke:none;stroke-width:3;marker:none;visibility:visible;display:inline;overflow:visible;enable-background:accumulate;font-family:Sans;-inkscape-font-specification:Sans"
       d="m 204,-60 c 0,0 -5.0562,12.7972 -6.24914,15.622841 -1.19293,2.825642 0.18937,3.610092 2.77165,2.58919 C 203.10479,-42.808871 239,-57 239,-57 l 0,-3 -38,15 6,-15 z"
       id="path3857"
       inkscape:connector-curvature="0"
       sodipodi:nodetypes="czzccccc" />
    <path
       style="fill:#ffffff;fill-opacity:1;stroke:none"
       d="m 201,-45 6,-15 32,0 z"
       id="path3865"
       inkscape:connector-curvature="0"
       sodipodi:nodetypes="cccc" />
    <path
       style="font-size:medium;font-style:normal;font-variant:normal;font-weight:normal;font-stretch:normal;text-indent:0;text-align:start;text-decoration:none;line-height:normal;letter-spacing:normal;word-spacing:normal;text-transform:none;direction:ltr;block-progression:tb;writing-mode:lr-tb;text-anchor:start;baseline-shift:baseline;color:#000000;fill:#a0a0a0;fill-opacity:1;stroke:none;stroke-width:3;marker:none;visibility:visible;display:inline;overflow:visible;enable-background:accumulate;font-family:Sans;-inkscape-font-specification:Sans"
       d="m 231,-28 c 0,0 5.0562,12.7972 6.24914,15.622841 1.19293,2.825642 -0.18937,3.610092 -2.77165,2.58919 C 231.89521,-10.808871 196,-25 196,-25 l 0,-3 38,15 -6,-15 z"
       id="path3857-3"
       inkscape:connector-curvature="0"
       sodipodi:nodetypes="czzccccc" />
    <path
       style="fill:#ffffff;fill-opacity:1;stroke:none"
       d="m 234,-13 -6,-15 -32,0 z"
       id="path3865-8"
       inkscape:connector-curvature="0"
       sodipodi:nodetypes="cccc" />
    <path
       sodipodi:type="arc"
       style="fill:#ffffff;fill-opacity:1;stroke:#a0a0a0;stroke-width:1.19508696;stroke-miterlimit:4;stroke-opacity:1;stroke-dasharray:none"
       id="path3975"
       sodipodi:cx="267"
       sodipodi:cy="17.5"
       sodipodi:rx="4"
       sodipodi:ry="2.5"
       d="m 271,17.5 a 4,2.5 0 0 1 -4,2.5 4,2.5 0 0 1 -4,-2.5 4,2.5 0 0 1 4,-2.5 4,2.5 0 0 1 4,2.5 z"
       transform="matrix(0.87501238,0,0,0.80001981,31.288154,-56.416806)" />
    <path
       sodipodi:type="arc"
       style="fill:#ffffff;fill-opacity:1;stroke:#a0a0a0;stroke-width:1.46086073;stroke-miterlimit:4;stroke-opacity:1;stroke-dasharray:none"
       id="path3975-6"
       sodipodi:cx="267"
       sodipodi:cy="17.5"
       sodipodi:rx="4"
       sodipodi:ry="2.5"
       d="m 271,17.5 a 4,2.5 0 0 1 -4,2.5 4,2.5 0 0 1 -4,-2.5 4,2.5 0 0 1 4,-2.5 4,2.5 0 0 1 4,2.5 z"
       transform="matrix(1.0427754,0,0,0.82844058,-6.7035308,-60.947711)" />
    <path
       sodipodi:type="arc"
       style="fill:#ffffff;fill-opacity:1;stroke:#a0a0a0;stroke-width:1.3999728;stroke-miterlimit:4;stroke-opacity:1;stroke-dasharray:none"
       id="path3975-6-6"
       sodipodi:cx="267"
       sodipodi:cy="17.5"
       sodipodi:rx="4"
       sodipodi:ry="2.5"
       d="m 271,17.5 a 4,2.5 0 0 1 -4,2.5 4,2.5 0 0 1 -4,-2.5 4,2.5 0 0 1 4,-2.5 4,2.5 0 0 1 4,2.5 z"
       transform="matrix(1.3749995,0,0,1.2378939,-89.624862,-74.663143)" />
    <path
       sodipodi:type="arc"
       style="fill:#ffffff;fill-opacity:1;stroke:#a0a0a0;stroke-width:1.19508696;stroke-miterlimit:4;stroke-opacity:1;stroke-dasharray:none"
       id="path3975-1"
       sodipodi:cx="267"
       sodipodi:cy="17.5"
       sodipodi:rx="4"
       sodipodi:ry="2.5"
       d="m 271,17.5 a 4,2.5 0 0 1 -4,2.5 4,2.5 0 0 1 -4,-2.5 4,2.5 0 0 1 4,-2.5 4,2.5 0 0 1 4,2.5 z"
       transform="matrix(-0.87501238,0,0,0.80001981,532.71185,-24.416347)" />
    <path
       sodipodi:type="arc"
       style="fill:#ffffff;fill-opacity:1;stroke:#a0a0a0;stroke-width:1.46086073;stroke-miterlimit:4;stroke-opacity:1;stroke-dasharray:none"
       id="path3975-6-3"
       sodipodi:cx="267"
       sodipodi:cy="17.5"
       sodipodi:rx="4"
       sodipodi:ry="2.5"
       d="m 271,17.5 a 4,2.5 0 0 1 -4,2.5 4,2.5 0 0 1 -4,-2.5 4,2.5 0 0 1 4,-2.5 4,2.5 0 0 1 4,2.5 z"
       transform="matrix(-1.0427754,0,0,0.82844058,570.70353,-28.947252)" />
    <path
       sodipodi:type="arc"
       style="fill:#ffffff;fill-opacity:1;stroke:#a0a0a0;stroke-width:1.3999728;stroke-miterlimit:4;stroke-opacity:1;stroke-dasharray:none"
       id="path3975-6-6-4"
       sodipodi:cx="267"
       sodipodi:cy="17.5"
       sodipodi:rx="4"
       sodipodi:ry="2.5"
       d="m 271,17.5 a 4,2.5 0 0 1 -4,2.5 4,2.5 0 0 1 -4,-2.5 4,2.5 0 0 1 4,-2.5 4,2.5 0 0 1 4,2.5 z"
       transform="matrix(-1.3749995,0,0,1.2378939,653.62486,-42.662683)" />
    <path
       sodipodi:nodetypes="ccccccccc"
       inkscape:connector-curvature="0"
       id="path3045"
       d="m 151,9 0,5.5 -2,-2 -2.5,2.5 -0.65587,-0.655869 L 145,13.5 l 2.5,-2.5 -2,-2 z"
       style="fill:#ffffff;fill-opacity:1;stroke:none" />
    <path
       style="fill:#ffffff;fill-opacity:1;stroke:none"
       d="m 137,9 5.5,0 -2,2 2.5,2.5 -1.5,1.5 -2.5,-2.5 -2,2 z"
       id="path3047"
       inkscape:connector-curvature="0"
       sodipodi:nodetypes="cccccccc" />
    <path
       sodipodi:nodetypes="cccccccc"
       inkscape:connector-curvature="0"
       id="path3049"
       d="m 137,23 0,-5.5 2,2 2.5,-2.5 1.5,1.5 -2.5,2.5 2,2 z"
       style="fill:#ffffff;fill-opacity:1;stroke:none" />
    <path
       style="fill:#ffffff;fill-opacity:1;stroke:none"
       d="m 151,23 -5.5,0 2,-2 -2.5,-2.5 0.65587,-0.65587 L 146.5,17 l 2.5,2.5 2,-2 z"
       id="path3051"
       inkscape:connector-curvature="0"
       sodipodi:nodetypes="ccccccccc" />
    <rect
       style="fill:#ff0000;stroke:none;stroke-width:45;stroke-linecap:round;stroke-linejoin:round;stroke-miterlimit:4;stroke-dasharray:none"
       id="rect4173"
       width="16"
       height="16"
       x="8"
       y="-24"
       ry="2" />
    <path
       sodipodi:type="star"
       style="fill:#ffffff;stroke:none;stroke-width:45;stroke-linecap:round;stroke-linejoin:round;stroke-miterlimit:4;stroke-dasharray:none"
       id="path4175"
       sodipodi:sides="4"
       sodipodi:cx="16"
       sodipodi:cy="-16"
       sodipodi:r1="4.1231055"
       sodipodi:r2="1.0720074"
       sodipodi:arg1="-0.24497866"
       sodipodi:arg2="0.5404195"
       inkscape:flatsided="false"
       inkscape:rounded="0.29"
       inkscape:randomized="0"
       d="m 20,-17 c 0.242615,0.970459 -2.566097,0.69377 -3.080761,1.551543 C 16.404575,-14.590684 17.970459,-12.242615 17,-12 16.029541,-11.757385 16.30623,-14.566097 15.448457,-15.080761 14.590684,-15.595425 12.242615,-14.029541 12,-15 c -0.242615,-0.970459 2.566097,-0.69377 3.080761,-1.551543 C 15.595425,-17.409316 14.029541,-19.757385 15,-20 c 0.970459,-0.242615 0.69377,2.566097 1.551543,3.080761 C 17.409316,-16.404575 19.757385,-17.970459 20,-17 Z"
       inkscape:transform-center-x="0.1158777"
       inkscape:transform-center-y="-0.43109509"
       transform="matrix(1.191395,-0.71455223,0.71455223,1.191395,8.3999642,14.471538)" />
  </g>
</svg>
